# xmcd
#
# Track frame offsets:
#	150
#	13740
#	23402
#	37832
#	48950
#	59882
#	70725
#	82245
#	92267
#	102102
#	114882
#	126032
#	137765
#	148372
#	160292
#
# Disc length: 2301 seconds
#
# Revision: 0
# Processed by: cddbd v1.5.2PL0 Copyright (c) Steve Scherf et al.
# Submitted via: EasyCDDAExtractor 10.2.0.1
#
DISCID=c408fb0f
DTITLE=Various Artist - La musica de todos Nº3
DYEAR=1998
DGENRE=Revival
TTITLE0=Palito Ortega  - Vivir Con Alegria
TTITLE1=Lalo Fransen - El Pañuelo Manchado De Rouge
TTITLE2=Juan Y Juan - Viva La Buena Vida
TTITLE3=Conexión Nº5 - Hazme Una Señal (Gimme A Litle Sign)
TTITLE4=Palito Ortega Y Libertad Lamarque - Se Parece A Mi Mama
TTITLE5=Joly Land - Esos Locos Dias De Verano (These Lazy, Crazy Days Of Summe
TTITLE5=r)
TTITLE6=Marca Registrada - Vieja Coseme El Boton
TTITLE7=Juan Ramon - La Carta (A Carta)
TTITLE8=Tormenta - Porteño Triste
TTITLE9=Juan Eduardo - Eran Dos Locos De Amor
TTITLE10=Los Red Caps - Ruby Baby
TTITLE11=Violeta Rivas - La Luna El Cielo Y Tu
TTITLE12=Los Tnt - Cancion De Amor (Chanson D'amour)
TTITLE13=Los Iracundos - El Juguete (Il Giocattolo)
TTITLE14=Los Campanelli - La Familia Unita
EXTD=YEAR: 1998\n
EXTT0=
EXTT1=
EXTT2=
EXTT3=
EXTT4=
EXTT5=
EXTT6=
EXTT7=
EXTT8=
EXTT9=
EXTT10=
EXTT11=
EXTT12=
EXTT13=
EXTT14=
PLAYORDER=
